# xmcd
#
# Track frame offsets: 
#        150
#        16656
#        27320
#        37371
#        50989
#        60730
#        72422
#        91056
#        104388
#        118068
#        134772
#        149142
#        165107
#
# Disc length: 2550 seconds
#
# Revision: 0
# Processed by: cddbd v1.5.2PL0 Copyright (c) Steve Scherf et al.
# Submitted via: ExactAudioCopy v0.99pb4
#
DISCID=c209f40d
DTITLE=Ben Prestage - Live at Pineapple Willy's Disc 2
DYEAR=2008
DGENRE=Southern Country Blues
TTITLE0=Friend of  the Devil
TTITLE1=5 Letter 4 Word Blues
TTITLE2=Alleghany County
TTITLE3=Lost Highway
TTITLE4=Instrumental
TTITLE5=Big Fat Mama
TTITLE6=Cocaine Blues
TTITLE7=Audobon Zoo
TTITLE8=Goin' Down South
TTITLE9=Cryin' Holy
TTITLE10=Weedhead
TTITLE11=Can't Be Satisfied
TTITLE12=Curtis Lowe
EXTD=
EXTT0=
EXTT1=
EXTT2=
EXTT3=
EXTT4=
EXTT5=
EXTT6=
EXTT7=
EXTT8=
EXTT9=
EXTT10=
EXTT11=
EXTT12=
PLAYORDER=
